M48
; DRILL file {KiCad 9.0.6} date 2026-02-23T23:24:51+0530
; FORMAT={-:-/ absolute / metric / decimal}
; #@! TF.CreationDate,2026-02-23T23:24:51+05:30
; #@! TF.GenerationSoftware,Kicad,Pcbnew,9.0.6
; #@! TF.FileFunction,Plated,1,2,PTH
FMAT,2
METRIC
; #@! TA.AperFunction,Plated,PTH,ComponentDrill
T1C0.800
; #@! TA.AperFunction,Plated,PTH,ComponentDrill
T2C1.020
; #@! TA.AperFunction,Plated,PTH,ComponentDrill
T3C1.500
%
G90
G05
T1
X46.99Y-20.955
X46.99Y-28.575
X46.99Y-40.005
X46.99Y-47.625
X46.99Y-59.055
X46.99Y-66.675
X46.99Y-97.155
X46.99Y-104.775
X56.515Y-78.105
X56.515Y-85.725
X75.565Y-20.955
X75.565Y-28.575
X75.565Y-40.005
X75.565Y-47.625
X75.565Y-59.055
X75.565Y-66.675
X75.565Y-97.155
X75.565Y-104.775
X94.615Y-20.955
X94.615Y-28.575
X94.615Y-40.005
X94.615Y-47.625
X94.615Y-59.055
X94.615Y-66.675
X94.615Y-78.105
X94.615Y-85.725
X94.615Y-97.155
X94.615Y-104.775
X113.665Y-20.955
X113.665Y-28.575
X113.665Y-40.005
X113.665Y-47.625
X113.665Y-59.055
X113.665Y-66.675
X113.665Y-78.105
X113.665Y-85.725
X132.715Y-20.955
X132.715Y-28.575
X132.715Y-40.005
X132.715Y-47.625
X132.715Y-59.055
X132.715Y-66.675
X132.715Y-78.105
X132.715Y-85.725
X151.765Y-20.955
X151.765Y-28.575
X151.765Y-40.005
X151.765Y-47.625
X151.765Y-59.055
X151.765Y-66.675
X151.765Y-78.105
X151.765Y-85.725
X170.815Y-20.955
X170.815Y-28.575
X170.815Y-40.005
X170.815Y-47.625
X170.815Y-59.055
X170.815Y-66.675
X170.815Y-78.105
X170.815Y-85.725
X170.815Y-97.155
X170.815Y-104.775
X189.865Y-20.955
X189.865Y-28.575
X189.865Y-40.005
X189.865Y-47.625
X189.865Y-59.055
X189.865Y-66.675
X189.865Y-78.105
X189.865Y-85.725
X208.915Y-20.955
X208.915Y-28.575
X208.915Y-40.005
X208.915Y-47.625
X208.915Y-59.055
X208.915Y-66.675
X208.915Y-78.105
X208.915Y-85.725
X227.965Y-20.955
X227.965Y-28.575
X227.965Y-40.005
X227.965Y-47.625
X227.965Y-59.055
X227.965Y-66.675
X227.965Y-78.105
X227.965Y-85.725
X247.015Y-20.955
X247.015Y-28.575
X247.015Y-40.005
X247.015Y-47.625
X247.015Y-59.055
X247.015Y-66.675
X247.015Y-78.105
X247.015Y-85.725
X247.015Y-97.155
X247.015Y-104.775
X266.065Y-20.955
X266.065Y-28.575
X266.065Y-40.005
X266.065Y-47.625
X266.065Y-59.055
X266.065Y-66.675
X266.065Y-78.105
X266.065Y-85.725
X266.065Y-97.155
X266.065Y-104.775
X285.115Y-20.955
X285.115Y-28.575
X285.115Y-40.005
X285.115Y-47.625
X285.115Y-78.105
X285.115Y-85.725
X285.115Y-97.155
X285.115Y-104.775
X294.64Y-59.055
X294.64Y-66.675
X304.165Y-20.955
X304.165Y-28.575
X304.165Y-40.005
X304.165Y-47.625
X304.165Y-78.105
X304.165Y-85.725
X304.165Y-97.155
X304.165Y-104.775
X323.215Y-20.955
X323.215Y-28.575
X323.215Y-40.005
X323.215Y-47.625
X323.215Y-59.055
X323.215Y-66.675
X323.215Y-78.105
X323.215Y-85.725
X323.215Y-97.155
X323.215Y-104.775
T2
X32.385Y14.287
X32.385Y-3.492
X34.925Y14.287
X34.925Y-3.492
X37.465Y14.287
X37.465Y-3.492
X40.005Y14.287
X40.005Y-3.492
X42.545Y14.287
X42.545Y-3.492
X45.085Y14.287
X45.085Y-3.492
X47.625Y14.287
X47.625Y-3.492
X50.165Y14.287
X50.165Y-3.492
X52.705Y14.287
X52.705Y-3.492
X55.245Y14.287
X55.245Y-3.492
X57.785Y14.287
X57.785Y-3.492
X60.325Y14.287
X60.325Y-3.492
X62.865Y14.287
X62.865Y-3.492
X65.405Y14.287
X65.405Y-3.492
X67.945Y14.287
X67.945Y-3.492
X70.485Y14.287
X70.485Y-3.492
X73.025Y14.287
X73.025Y-3.492
X75.565Y14.287
X75.565Y-3.492
X78.105Y14.287
X78.105Y-3.492
X80.415Y7.938
X80.415Y5.397
X80.415Y2.857
X80.645Y14.287
X80.645Y-3.492
T3
X33.655Y-21.272
X33.655Y-40.322
X33.655Y-59.372
X33.655Y-97.472
X40.005Y-18.732
X40.005Y-37.782
X40.005Y-56.832
X40.005Y-94.932
X43.18Y-78.422
X49.53Y-75.882
X62.23Y-21.272
X62.23Y-40.322
X62.23Y-59.372
X62.23Y-97.472
X68.58Y-18.732
X68.58Y-37.782
X68.58Y-56.832
X68.58Y-94.932
X81.28Y-21.272
X81.28Y-40.322
X81.28Y-59.372
X81.28Y-78.422
X81.28Y-97.472
X87.63Y-18.732
X87.63Y-37.782
X87.63Y-56.832
X87.63Y-75.882
X87.63Y-94.932
X100.33Y-21.272
X100.33Y-40.322
X100.33Y-59.372
X100.33Y-78.422
X106.68Y-18.732
X106.68Y-37.782
X106.68Y-56.832
X106.68Y-75.882
X119.38Y-21.272
X119.38Y-40.322
X119.38Y-59.372
X119.38Y-78.422
X125.73Y-18.732
X125.73Y-37.782
X125.73Y-56.832
X125.73Y-75.882
X138.43Y-21.272
X138.43Y-40.322
X138.43Y-59.372
X138.43Y-78.422
X144.78Y-18.732
X144.78Y-37.782
X144.78Y-56.832
X144.78Y-75.882
X157.48Y-21.272
X157.48Y-40.322
X157.48Y-59.372
X157.48Y-78.422
X157.48Y-97.472
X163.83Y-18.732
X163.83Y-37.782
X163.83Y-56.832
X163.83Y-75.882
X163.83Y-94.932
X176.53Y-21.272
X176.53Y-40.322
X176.53Y-59.372
X176.53Y-78.422
X182.88Y-18.732
X182.88Y-37.782
X182.88Y-56.832
X182.88Y-75.882
X195.58Y-21.272
X195.58Y-40.322
X195.58Y-59.372
X195.58Y-78.422
X201.93Y-18.732
X201.93Y-37.782
X201.93Y-56.832
X201.93Y-75.882
X214.63Y-21.272
X214.63Y-40.322
X214.63Y-59.372
X214.63Y-78.422
X220.98Y-18.732
X220.98Y-37.782
X220.98Y-56.832
X220.98Y-75.882
X233.68Y-21.272
X233.68Y-40.322
X233.68Y-59.372
X233.68Y-78.422
X233.68Y-97.472
X240.03Y-18.732
X240.03Y-37.782
X240.03Y-56.832
X240.03Y-75.882
X240.03Y-94.932
X252.73Y-21.272
X252.73Y-40.322
X252.73Y-59.372
X252.73Y-78.422
X252.73Y-97.472
X259.08Y-18.732
X259.08Y-37.782
X259.08Y-56.832
X259.08Y-75.882
X259.08Y-94.932
X271.78Y-21.272
X271.78Y-40.322
X271.78Y-78.422
X271.78Y-97.472
X278.13Y-18.732
X278.13Y-37.782
X278.13Y-75.882
X278.13Y-94.932
X281.305Y-59.372
X287.655Y-56.832
X290.83Y-21.272
X290.83Y-40.322
X290.83Y-78.422
X290.83Y-97.472
X297.18Y-18.732
X297.18Y-37.782
X297.18Y-75.882
X297.18Y-94.932
X309.88Y-21.272
X309.88Y-40.322
X309.88Y-59.372
X309.88Y-78.422
X309.88Y-97.472
X316.23Y-18.732
X316.23Y-37.782
X316.23Y-56.832
X316.23Y-75.882
X316.23Y-94.932
M30
