M48
; DRILL file {KiCad 9.0.6} date 2026-02-23T23:24:51+0530
; FORMAT={-:-/ absolute / metric / decimal}
; #@! TF.CreationDate,2026-02-23T23:24:51+05:30
; #@! TF.GenerationSoftware,Kicad,Pcbnew,9.0.6
; #@! TF.FileFunction,NonPlated,1,2,NPTH
FMAT,2
METRIC
; #@! TA.AperFunction,NonPlated,NPTH,ComponentDrill
T1C1.750
; #@! TA.AperFunction,NonPlated,NPTH,ComponentDrill
T2C4.000
%
G90
G05
T1
X32.385Y-23.812
X32.385Y-42.862
X32.385Y-61.912
X32.385Y-100.012
X41.91Y-80.962
X42.545Y-23.812
X42.545Y-42.862
X42.545Y-61.912
X42.545Y-100.012
X52.07Y-80.962
X60.96Y-23.812
X60.96Y-42.862
X60.96Y-61.912
X60.96Y-100.012
X71.12Y-23.812
X71.12Y-42.862
X71.12Y-61.912
X71.12Y-100.012
X80.01Y-23.812
X80.01Y-42.862
X80.01Y-61.912
X80.01Y-80.962
X80.01Y-100.012
X90.17Y-23.812
X90.17Y-42.862
X90.17Y-61.912
X90.17Y-80.962
X90.17Y-100.012
X99.06Y-23.812
X99.06Y-42.862
X99.06Y-61.912
X99.06Y-80.962
X109.22Y-23.812
X109.22Y-42.862
X109.22Y-61.912
X109.22Y-80.962
X118.11Y-23.812
X118.11Y-42.862
X118.11Y-61.912
X118.11Y-80.962
X128.27Y-23.812
X128.27Y-42.862
X128.27Y-61.912
X128.27Y-80.962
X137.16Y-23.812
X137.16Y-42.862
X137.16Y-61.912
X137.16Y-80.962
X147.32Y-23.812
X147.32Y-42.862
X147.32Y-61.912
X147.32Y-80.962
X156.21Y-23.812
X156.21Y-42.862
X156.21Y-61.912
X156.21Y-80.962
X156.21Y-100.012
X166.37Y-23.812
X166.37Y-42.862
X166.37Y-61.912
X166.37Y-80.962
X166.37Y-100.012
X175.26Y-23.812
X175.26Y-42.862
X175.26Y-61.912
X175.26Y-80.962
X185.42Y-23.812
X185.42Y-42.862
X185.42Y-61.912
X185.42Y-80.962
X194.31Y-23.812
X194.31Y-42.862
X194.31Y-61.912
X194.31Y-80.962
X204.47Y-23.812
X204.47Y-42.862
X204.47Y-61.912
X204.47Y-80.962
X213.36Y-23.812
X213.36Y-42.862
X213.36Y-61.912
X213.36Y-80.962
X223.52Y-23.812
X223.52Y-42.862
X223.52Y-61.912
X223.52Y-80.962
X232.41Y-23.812
X232.41Y-42.862
X232.41Y-61.912
X232.41Y-80.962
X232.41Y-100.012
X242.57Y-23.812
X242.57Y-42.862
X242.57Y-61.912
X242.57Y-80.962
X242.57Y-100.012
X251.46Y-23.812
X251.46Y-42.862
X251.46Y-61.912
X251.46Y-80.962
X251.46Y-100.012
X261.62Y-23.812
X261.62Y-42.862
X261.62Y-61.912
X261.62Y-80.962
X261.62Y-100.012
X270.51Y-23.812
X270.51Y-42.862
X270.51Y-80.962
X270.51Y-100.012
X280.035Y-61.912
X280.67Y-23.812
X280.67Y-42.862
X280.67Y-80.962
X280.67Y-100.012
X289.56Y-23.812
X289.56Y-42.862
X289.56Y-80.962
X289.56Y-100.012
X290.195Y-61.912
X299.72Y-23.812
X299.72Y-42.862
X299.72Y-80.962
X299.72Y-100.012
X308.61Y-23.812
X308.61Y-42.862
X308.61Y-61.912
X308.61Y-80.962
X308.61Y-100.012
X318.77Y-23.812
X318.77Y-42.862
X318.77Y-61.912
X318.77Y-80.962
X318.77Y-100.012
T2
X37.465Y-23.812
X37.465Y-42.862
X37.465Y-61.912
X37.465Y-100.012
X46.99Y-80.962
X66.04Y-23.812
X66.04Y-42.862
X66.04Y-61.912
X66.04Y-100.012
X85.09Y-23.812
X85.09Y-42.862
X85.09Y-61.912
X85.09Y-80.962
X85.09Y-100.012
X104.14Y-23.812
X104.14Y-42.862
X104.14Y-61.912
X104.14Y-80.962
X123.19Y-23.812
X123.19Y-42.862
X123.19Y-61.912
X123.19Y-80.962
X142.24Y-23.812
X142.24Y-42.862
X142.24Y-61.912
X142.24Y-80.962
X161.29Y-23.812
X161.29Y-42.862
X161.29Y-61.912
X161.29Y-80.962
X161.29Y-100.012
X180.34Y-23.812
X180.34Y-42.862
X180.34Y-61.912
X180.34Y-80.962
X199.39Y-23.812
X199.39Y-42.862
X199.39Y-61.912
X199.39Y-80.962
X218.44Y-23.812
X218.44Y-42.862
X218.44Y-61.912
X218.44Y-80.962
X237.49Y-23.812
X237.49Y-42.862
X237.49Y-61.912
X237.49Y-80.962
X237.49Y-100.012
X256.54Y-23.812
X256.54Y-42.862
X256.54Y-61.912
X256.54Y-80.962
X256.54Y-100.012
X275.59Y-23.812
X275.59Y-42.862
X275.59Y-80.962
X275.59Y-100.012
X285.115Y-61.912
X294.64Y-23.812
X294.64Y-42.862
X294.64Y-80.962
X294.64Y-100.012
X313.69Y-23.812
X313.69Y-42.862
X313.69Y-61.912
X313.69Y-80.962
X313.69Y-100.012
M30
